<svg xmlns="http://www.w3.org/2000/svg" viewBox="0 0 100 100">
  <defs>
    <linearGradient id="bg" x1="0" y1="0" x2="1" y2="1">
      <stop offset="0" stop-color="#1A2236"/>
      <stop offset="1" stop-color="#0E1320"/>
    </linearGradient>
  </defs>
  <rect width="100" height="100" rx="22" fill="url(#bg)"/>
  <rect x="0.75" y="0.75" width="98.5" height="98.5" rx="21.25" fill="none" stroke="#2E3A55" stroke-width="1.5"/>
  <g transform="translate(14 14) scale(3)" fill="none">
    <path d="M6 4 L18 4 L13.2 12 L18 20 L6 20 L10.8 12 Z" stroke="#3B82F6" stroke-width="1.6" stroke-linejoin="round"/>
    <line x1="5" y1="4" x2="19" y2="4" stroke="#3B82F6" stroke-width="1.8" stroke-linecap="round"/>
    <line x1="5" y1="20" x2="19" y2="20" stroke="#3B82F6" stroke-width="1.8" stroke-linecap="round"/>
    <g fill="#22d3ee">
      <circle cx="10.2" cy="7" r="1.05"/>
      <circle cx="13.8" cy="7" r="1.05"/>
      <circle cx="12" cy="9" r="1.05"/>
      <circle cx="12" cy="12.5" r="1.05"/>
      <circle cx="9.6" cy="18.4" r="1.05"/>
      <circle cx="12" cy="18.4" r="1.05"/>
      <circle cx="14.4" cy="18.4" r="1.05"/>
      <circle cx="10.8" cy="16.6" r="1.05"/>
      <circle cx="13.2" cy="16.6" r="1.05"/>
    </g>
  </g>
</svg>
